<svg width="42" height="42" viewBox="0 0 42 42" fill="none" xmlns="http://www.w3.org/2000/svg">
    <path fill-rule="evenodd" clip-rule="evenodd"
          d="M7.16452 6.76337C11.8952 2.57044 18.011 0.439453 23.8723 0.439453C28.8937 0.439453 33.8249 2.00783 37.5489 5.28539L37.5516 5.28775C42.8978 10.0118 42.8984 17.8452 37.5533 22.5699C37.5527 22.5704 37.5522 22.5709 37.5516 22.5715L34.596 25.1954C34.5959 25.1955 34.5961 25.1953 34.596 25.1954C34.2303 25.5203 34.1569 25.8073 34.1569 25.9804C34.1569 26.1536 34.2301 26.4404 34.596 26.7654L34.6016 26.7703C34.8565 26.9986 34.9691 27.0637 35.0619 27.1053C35.1792 27.1579 35.3868 27.2253 35.8959 27.3094L35.9019 27.3104C35.946 27.3178 35.9942 27.3256 36.046 27.334C36.7658 27.4506 38.1891 27.6811 39.232 28.645L39.2386 28.6511C40.2261 29.573 40.7294 30.9122 40.7706 32.1867C40.8124 33.4849 40.3784 34.9416 39.1937 35.9881C35.0167 39.7008 29.2323 41.5604 23.4621 41.5604H23.283C17.5064 41.5187 11.5951 39.6134 7.1655 35.6963M7.16452 6.76337C-1.80399 14.691 -1.80341 27.7689 7.1655 35.6963ZM23.8723 4.06039C18.855 4.06039 13.6041 5.89394 9.56541 9.47388L9.56345 9.47562C2.22447 15.962 2.22447 26.4968 9.56345 32.9832C13.2377 36.2325 18.2615 37.9017 23.303 37.9395H23.4621C28.5111 37.9395 33.3895 36.3038 36.7904 33.2798L36.7958 33.2749C37.0152 33.0814 37.166 32.7523 37.1515 32.3034C37.1363 31.8324 36.9434 31.4641 36.7705 31.3007C36.7171 31.2527 36.598 31.1749 36.3343 31.0941C36.0524 31.0078 35.7408 30.9553 35.3067 30.882C34.6928 30.7806 34.123 30.6525 33.5811 30.4096C33.0161 30.1564 32.5873 29.8269 32.1887 29.4702C31.1598 28.5552 30.5359 27.3245 30.5359 25.9804C30.5359 24.635 31.161 23.4033 32.1915 22.488L35.1508 19.8609L35.1539 19.8581C38.869 16.5753 38.8697 11.2862 35.1558 8.00278C32.2002 5.40192 28.1668 4.06039 23.8723 4.06039Z"
          fill="black"/>
    <path d="M10.0625 19.4375C11.7884 19.4375 13.1875 18.0384 13.1875 16.3125C13.1875 14.5866 11.7884 13.1875 10.0625 13.1875C8.33661 13.1875 6.9375 14.5866 6.9375 16.3125C6.9375 18.0384 8.33661 19.4375 10.0625 19.4375Z"
          fill="black"/>
    <path d="M10.8438 29.4961C12.5696 29.4961 13.9688 28.097 13.9688 26.3711C13.9688 24.6452 12.5696 23.2461 10.8438 23.2461C9.11786 23.2461 7.71875 24.6452 7.71875 26.3711C7.71875 28.097 9.11786 29.4961 10.8438 29.4961Z"
          fill="black"/>
    <path d="M17.875 13.1875C19.6009 13.1875 21 11.7884 21 10.0625C21 8.33661 19.6009 6.9375 17.875 6.9375C16.1491 6.9375 14.75 8.33661 14.75 10.0625C14.75 11.7884 16.1491 13.1875 17.875 13.1875Z"
          fill="black"/>
    <path d="M21 36.5273C23.5888 36.5273 25.6875 34.4287 25.6875 31.8398C25.6875 29.251 23.5888 27.1523 21 27.1523C18.4112 27.1523 16.3125 29.251 16.3125 31.8398C16.3125 34.4287 18.4112 36.5273 21 36.5273Z"
          fill="black"/>
    <path d="M28.0312 13.1875C29.7571 13.1875 31.1562 11.7884 31.1562 10.0625C31.1562 8.33661 29.7571 6.9375 28.0312 6.9375C26.3054 6.9375 24.9062 8.33661 24.9062 10.0625C24.9062 11.7884 26.3054 13.1875 28.0312 13.1875Z"
          fill="black"/>
</svg>
