<svg width="192" height="63" viewBox="0 0 192 63" fill="none" xmlns="http://www.w3.org/2000/svg">
    <path d="M83.372 38.972C83.684 38.972 83.924 39.116 84.092 39.404C84.284 39.692 84.38 40.088 84.38 40.592C84.38 41.552 84.152 42.296 83.696 42.824C82.664 44.096 81.536 45.14 80.312 45.956C79.112 46.772 77.744 47.18 76.208 47.18C74.096 47.18 72.524 46.22 71.492 44.3C70.484 42.38 69.98 39.896 69.98 36.848C69.98 33.92 70.352 30.584 71.096 26.84C71.864 23.096 72.98 19.88 74.444 17.192C75.932 14.504 77.696 13.16 79.736 13.16C80.888 13.16 81.788 13.7 82.436 14.78C83.108 15.836 83.444 17.36 83.444 19.352C83.444 22.208 82.652 25.52 81.068 29.288C79.484 33.056 77.336 36.788 74.624 40.484C74.792 41.468 75.068 42.176 75.452 42.608C75.836 43.016 76.34 43.22 76.964 43.22C77.948 43.22 78.812 42.944 79.556 42.392C80.3 41.816 81.248 40.844 82.4 39.476C82.688 39.14 83.012 38.972 83.372 38.972ZM78.944 16.724C78.392 16.724 77.768 17.72 77.072 19.712C76.376 21.704 75.764 24.176 75.236 27.128C74.708 30.08 74.42 32.912 74.372 35.624C76.076 32.816 77.432 30.008 78.44 27.2C79.448 24.368 79.952 21.788 79.952 19.46C79.952 17.636 79.616 16.724 78.944 16.724ZM86.1862 27.848C85.1782 27.848 84.4222 27.62 83.9182 27.164C83.4142 26.684 83.1622 26.024 83.1622 25.184C83.1622 24.344 83.4862 23.648 84.1342 23.096C84.8062 22.52 85.6342 22.232 86.6182 22.232C87.5062 22.232 88.2262 22.448 88.7782 22.88C89.3302 23.312 89.6062 23.924 89.6062 24.716C89.6062 25.676 89.2942 26.444 88.6702 27.02C88.0462 27.572 87.2182 27.848 86.1862 27.848ZM85.8982 47.18C84.3382 47.18 83.1982 46.628 82.4782 45.524C81.7822 44.42 81.4342 42.956 81.4342 41.132C81.4342 40.052 81.5662 38.672 81.8302 36.992C82.1182 35.288 82.4782 33.704 82.9102 32.24C83.1262 31.472 83.4142 30.944 83.7742 30.656C84.1342 30.368 84.7102 30.224 85.5022 30.224C86.7262 30.224 87.3382 30.632 87.3382 31.448C87.3382 32.048 87.1102 33.44 86.6542 35.624C86.0782 38.264 85.7902 40.052 85.7902 40.988C85.7902 41.708 85.8862 42.26 86.0782 42.644C86.2702 43.028 86.5942 43.22 87.0502 43.22C87.4822 43.22 88.0222 42.92 88.6702 42.32C89.3182 41.72 90.1822 40.772 91.2622 39.476C91.5502 39.14 91.8742 38.972 92.2342 38.972C92.5462 38.972 92.7862 39.116 92.9542 39.404C93.1462 39.692 93.2422 40.088 93.2422 40.592C93.2422 41.552 93.0142 42.296 92.5582 42.824C90.1822 45.728 87.9622 47.18 85.8982 47.18ZM106.386 38.972C106.698 38.972 106.938 39.116 107.106 39.404C107.298 39.692 107.394 40.088 107.394 40.592C107.394 41.552 107.166 42.296 106.71 42.824C105.678 44.096 104.55 45.14 103.326 45.956C102.102 46.772 100.698 47.18 99.1136 47.18C94.2176 47.18 91.7696 43.736 91.7696 36.848C91.7696 35.792 91.8056 34.724 91.8776 33.644H90.4736C89.7536 33.644 89.2616 33.512 88.9976 33.248C88.7576 32.984 88.6376 32.564 88.6376 31.988C88.6376 30.644 89.1776 29.972 90.2576 29.972H92.3096C92.7176 27.332 93.3416 24.92 94.1816 22.736C95.0216 20.552 96.0296 18.812 97.2056 17.516C98.4056 16.22 99.6896 15.572 101.058 15.572C102.066 15.572 102.858 16.016 103.434 16.904C104.01 17.792 104.298 18.908 104.298 20.252C104.298 23.972 102.738 27.212 99.6176 29.972H103.65C104.034 29.972 104.31 30.056 104.478 30.224C104.646 30.392 104.73 30.704 104.73 31.16C104.73 32.816 103.374 33.644 100.662 33.644H96.2696C96.2216 34.844 96.1976 35.78 96.1976 36.452C96.1976 38.948 96.4856 40.7 97.0616 41.708C97.6616 42.716 98.5976 43.22 99.8696 43.22C100.902 43.22 101.814 42.908 102.606 42.284C103.398 41.66 104.334 40.724 105.414 39.476C105.702 39.14 106.026 38.972 106.386 38.972ZM100.086 19.028C99.7256 19.028 99.3176 19.484 98.8616 20.396C98.4296 21.284 98.0096 22.532 97.6016 24.14C97.2176 25.724 96.8936 27.488 96.6296 29.432C98.0456 28.208 99.1016 26.84 99.7976 25.328C100.518 23.792 100.878 22.4 100.878 21.152C100.878 19.736 100.614 19.028 100.086 19.028ZM120.518 38.972C120.83 38.972 121.07 39.116 121.238 39.404C121.43 39.692 121.526 40.088 121.526 40.592C121.526 41.552 121.298 42.296 120.842 42.824C119.954 43.904 118.694 44.9 117.062 45.812C115.454 46.724 113.726 47.18 111.878 47.18C109.358 47.18 107.402 46.496 106.01 45.128C104.618 43.76 103.922 41.888 103.922 39.512C103.922 37.856 104.27 36.32 104.966 34.904C105.662 33.464 106.622 32.324 107.846 31.484C109.094 30.644 110.498 30.224 112.058 30.224C113.45 30.224 114.566 30.644 115.406 31.484C116.246 32.3 116.666 33.416 116.666 34.832C116.666 36.488 116.066 37.916 114.866 39.116C113.69 40.292 111.686 41.228 108.854 41.924C109.454 43.028 110.594 43.58 112.274 43.58C113.354 43.58 114.578 43.208 115.946 42.464C117.338 41.696 118.538 40.7 119.546 39.476C119.834 39.14 120.158 38.972 120.518 38.972ZM111.446 33.752C110.558 33.752 109.802 34.268 109.178 35.3C108.578 36.332 108.278 37.58 108.278 39.044V39.116C109.694 38.78 110.81 38.276 111.626 37.604C112.442 36.932 112.85 36.152 112.85 35.264C112.85 34.808 112.718 34.448 112.454 34.184C112.214 33.896 111.878 33.752 111.446 33.752ZM121.151 47.18C120.239 47.18 119.591 46.7 119.207 45.74C118.847 44.78 118.667 43.244 118.667 41.132C118.667 38.012 119.111 35.048 119.999 32.24C120.215 31.544 120.563 31.04 121.043 30.728C121.547 30.392 122.243 30.224 123.131 30.224C123.611 30.224 123.947 30.284 124.139 30.404C124.331 30.524 124.427 30.752 124.427 31.088C124.427 31.472 124.247 32.336 123.887 33.68C123.647 34.64 123.455 35.48 123.311 36.2C123.167 36.92 123.047 37.808 122.951 38.864C123.743 36.8 124.631 35.12 125.615 33.824C126.599 32.528 127.559 31.604 128.495 31.052C129.455 30.5 130.331 30.224 131.123 30.224C132.683 30.224 133.463 31.004 133.463 32.564C133.463 32.876 133.355 33.632 133.139 34.832C132.947 35.792 132.851 36.392 132.851 36.632C132.851 37.472 133.151 37.892 133.751 37.892C134.423 37.892 135.287 37.364 136.343 36.308C136.655 35.996 136.979 35.84 137.315 35.84C137.627 35.84 137.867 35.984 138.035 36.272C138.227 36.536 138.323 36.896 138.323 37.352C138.323 38.24 138.083 38.936 137.603 39.44C136.931 40.136 136.139 40.736 135.227 41.24C134.339 41.72 133.391 41.96 132.383 41.96C131.111 41.96 130.139 41.636 129.467 40.988C128.819 40.34 128.495 39.464 128.495 38.36C128.495 38 128.531 37.64 128.603 37.28C128.651 36.8 128.675 36.476 128.675 36.308C128.675 35.924 128.543 35.732 128.279 35.732C127.919 35.732 127.439 36.14 126.839 36.956C126.263 37.748 125.687 38.804 125.111 40.124C124.535 41.444 124.067 42.836 123.707 44.3C123.443 45.428 123.131 46.196 122.771 46.604C122.435 46.988 121.895 47.18 121.151 47.18ZM139.406 47.18C137.918 47.18 136.73 46.64 135.842 45.56C134.954 44.48 134.51 43.064 134.51 41.312C134.51 39.392 134.954 37.58 135.842 35.876C136.73 34.148 137.906 32.768 139.37 31.736C140.858 30.68 142.43 30.152 144.086 30.152C144.614 30.152 144.962 30.26 145.13 30.476C145.322 30.668 145.478 31.028 145.598 31.556C146.102 31.46 146.63 31.412 147.182 31.412C148.358 31.412 148.946 31.832 148.946 32.672C148.946 33.176 148.766 34.376 148.406 36.272C147.854 39.032 147.578 40.952 147.578 42.032C147.578 42.392 147.662 42.68 147.83 42.896C148.022 43.112 148.262 43.22 148.55 43.22C149.006 43.22 149.558 42.932 150.206 42.356C150.854 41.756 151.73 40.796 152.834 39.476C153.122 39.14 153.446 38.972 153.806 38.972C154.118 38.972 154.358 39.116 154.526 39.404C154.718 39.692 154.814 40.088 154.814 40.592C154.814 41.552 154.586 42.296 154.13 42.824C153.146 44.048 152.102 45.08 150.998 45.92C149.894 46.76 148.826 47.18 147.794 47.18C147.002 47.18 146.27 46.916 145.598 46.388C144.95 45.836 144.458 45.092 144.122 44.156C142.874 46.172 141.302 47.18 139.406 47.18ZM140.702 43.544C141.23 43.544 141.734 43.232 142.214 42.608C142.694 41.984 143.042 41.156 143.258 40.124L144.59 33.5C143.582 33.524 142.646 33.908 141.782 34.652C140.942 35.372 140.27 36.332 139.766 37.532C139.262 38.732 139.01 40.004 139.01 41.348C139.01 42.092 139.154 42.644 139.442 43.004C139.754 43.364 140.174 43.544 140.702 43.544ZM154.444 47.18C153.532 47.18 152.884 46.7 152.5 45.74C152.14 44.78 151.96 43.244 151.96 41.132C151.96 38.012 152.404 35.048 153.292 32.24C153.508 31.544 153.856 31.04 154.336 30.728C154.84 30.392 155.536 30.224 156.424 30.224C156.904 30.224 157.24 30.284 157.432 30.404C157.624 30.524 157.72 30.752 157.72 31.088C157.72 31.472 157.54 32.336 157.18 33.68C156.94 34.64 156.748 35.48 156.604 36.2C156.46 36.92 156.34 37.808 156.244 38.864C157.036 36.8 157.924 35.12 158.908 33.824C159.892 32.528 160.852 31.604 161.788 31.052C162.748 30.5 163.624 30.224 164.416 30.224C165.976 30.224 166.756 31.004 166.756 32.564C166.756 32.876 166.648 33.632 166.432 34.832C166.24 35.792 166.144 36.392 166.144 36.632C166.144 37.472 166.444 37.892 167.044 37.892C167.716 37.892 168.58 37.364 169.636 36.308C169.948 35.996 170.272 35.84 170.608 35.84C170.92 35.84 171.16 35.984 171.328 36.272C171.52 36.536 171.616 36.896 171.616 37.352C171.616 38.24 171.376 38.936 170.896 39.44C170.224 40.136 169.432 40.736 168.52 41.24C167.632 41.72 166.684 41.96 165.676 41.96C164.404 41.96 163.432 41.636 162.76 40.988C162.112 40.34 161.788 39.464 161.788 38.36C161.788 38 161.824 37.64 161.896 37.28C161.944 36.8 161.968 36.476 161.968 36.308C161.968 35.924 161.836 35.732 161.572 35.732C161.212 35.732 160.732 36.14 160.132 36.956C159.556 37.748 158.98 38.804 158.404 40.124C157.828 41.444 157.36 42.836 157 44.3C156.736 45.428 156.424 46.196 156.064 46.604C155.728 46.988 155.188 47.18 154.444 47.18ZM172.987 27.848C171.979 27.848 171.223 27.62 170.719 27.164C170.215 26.684 169.963 26.024 169.963 25.184C169.963 24.344 170.287 23.648 170.935 23.096C171.607 22.52 172.435 22.232 173.419 22.232C174.307 22.232 175.027 22.448 175.579 22.88C176.131 23.312 176.407 23.924 176.407 24.716C176.407 25.676 176.095 26.444 175.471 27.02C174.847 27.572 174.019 27.848 172.987 27.848ZM172.699 47.18C171.139 47.18 169.999 46.628 169.279 45.524C168.583 44.42 168.235 42.956 168.235 41.132C168.235 40.052 168.367 38.672 168.631 36.992C168.919 35.288 169.279 33.704 169.711 32.24C169.927 31.472 170.215 30.944 170.575 30.656C170.935 30.368 171.511 30.224 172.303 30.224C173.527 30.224 174.139 30.632 174.139 31.448C174.139 32.048 173.911 33.44 173.455 35.624C172.879 38.264 172.591 40.052 172.591 40.988C172.591 41.708 172.687 42.26 172.879 42.644C173.071 43.028 173.395 43.22 173.851 43.22C174.283 43.22 174.823 42.92 175.471 42.32C176.119 41.72 176.983 40.772 178.063 39.476C178.351 39.14 178.675 38.972 179.035 38.972C179.347 38.972 179.587 39.116 179.755 39.404C179.947 39.692 180.043 40.088 180.043 40.592C180.043 41.552 179.815 42.296 179.359 42.824C176.983 45.728 174.763 47.18 172.699 47.18ZM181.27 47.18C179.902 47.18 178.786 46.64 177.922 45.56C177.082 44.48 176.662 43.064 176.662 41.312C176.662 39.392 177.106 37.58 177.994 35.876C178.882 34.148 180.058 32.768 181.522 31.736C183.01 30.68 184.582 30.152 186.238 30.152C186.766 30.152 187.114 30.26 187.282 30.476C187.474 30.668 187.63 31.028 187.75 31.556C188.206 31.46 188.71 31.412 189.262 31.412C189.838 31.412 190.282 31.556 190.594 31.844C190.906 32.132 191.062 32.54 191.062 33.068C191.062 33.62 190.942 34.58 190.702 35.948C190.438 37.412 190.234 38.816 190.09 40.16C189.946 41.48 189.874 42.968 189.874 44.624C189.874 45.536 189.682 46.196 189.298 46.604C188.938 46.988 188.338 47.18 187.498 47.18C186.682 47.18 186.07 46.988 185.662 46.604C185.278 46.196 185.086 45.548 185.086 44.66L185.122 44.084C184.378 46.148 183.094 47.18 181.27 47.18ZM182.674 43.544C183.346 43.544 183.958 43.076 184.51 42.14C185.062 41.204 185.554 39.536 185.986 37.136L186.67 33.5C185.686 33.524 184.774 33.908 183.934 34.652C183.094 35.372 182.422 36.332 181.918 37.532C181.414 38.732 181.162 40.004 181.162 41.348C181.162 42.068 181.294 42.62 181.558 43.004C181.846 43.364 182.218 43.544 182.674 43.544Z"
          fill="black"/>
    <path d="M49.8926 11.005C44.8502 11.2896 34.8279 12.3256 28.6407 16.0924C28.2138 16.3523 27.9718 16.8145 27.9718 17.2977V50.5981C27.9718 51.6552 29.1339 52.3232 30.1139 51.8327C36.4795 48.6461 45.6857 47.7767 50.2377 47.5387C51.7918 47.4573 53 46.2181 53 44.7328V13.8146C53.0009 12.1938 51.5876 10.9098 49.8926 11.005ZM24.3593 16.0924C18.1731 12.3256 8.15073 11.2905 3.10828 11.005C1.41336 10.9098 0 12.1938 0 13.8146V44.7337C0 46.22 1.20816 47.4591 2.76231 47.5396C7.31615 47.7776 16.5269 48.6479 22.8925 51.8364C23.8697 52.326 25.0282 51.6588 25.0282 50.6046V17.2812C25.0282 16.7971 24.7871 16.3532 24.3593 16.0924Z"
          fill="black"/>
</svg>
